Coordinates
version=1
nRows=24
nColumns=22
inDegrees=yes

Units are S.I. units (second, meters, Newtons, ...)
If the header above contains a line with 'inDegrees', this indicates whether rotational values are in degrees (yes) or radians (no).

endheader
time	pelvis_tilt	pelvis_list	pelvis_rotation	pelvis_tx	pelvis_ty	pelvis_tz	hip_flexion_r	hip_adduction_r	hip_rotation_r	knee_angle_r	ankle_angle_r	subtalar_angle_r	hip_flexion_l	hip_adduction_l	hip_rotation_l	knee_angle_l	ankle_angle_l	subtalar_angle_l	lumbar_extension	lumbar_bending	lumbar_rotation
      2.74000000	      0.57555792	      0.07741365	      0.35164270	      0.22377948	      0.90056419	      0.17265038	     -0.44613102	      2.41518667	     -1.66963745	    -28.62878084	     18.89162245	     -2.55235652	     29.04296670	     -4.81154183	     -8.07142699	    -26.16627430	     -6.39642351	     11.80582589	    -12.77596192	     -5.43249560	      7.06712549
      2.75000000	      0.77510068	      0.18321604	      0.71961080	      0.21626997	      0.90206318	      0.17336695	     -0.31420201	      2.43222597	     -2.05573407	    -28.29883976	     18.75360317	     -3.09736376	     28.93742237	     -4.81313654	     -8.11501928	    -27.53326178	     -5.12525229	     11.82702242	    -12.93351172	     -5.59005460	      6.82177522
      2.76000000	      0.96918779	      0.28351253	      1.00481666	      0.20888293	      0.90364452	      0.17415230	     -0.17119462	      2.44353958	     -2.34145229	    -27.98478791	     18.55508110	     -3.58066543	     28.78066967	     -4.83601569	     -8.06931739	    -29.11368898	     -3.75369841	     11.62041816	    -13.06677286	     -5.75171630	      6.62013432
      2.77000000	      1.13602647	      0.38508474	      1.20927969	      0.20160222	      0.90526216	      0.17499725	      0.00904080	      2.43613032	     -2.56423080	    -27.68861511	     18.28353572	     -4.14219263	     28.59333810	     -4.87223993	     -7.96937467	    -30.86830363	     -2.38987721	     11.05769604	    -13.15255154	     -5.92696374	      6.49482405
      2.78000000	      1.29159532	      0.46762567	      1.35519500	      0.19444426	      0.90691909	      0.17586216	      0.17679463	      2.44246658	     -2.68329283	    -27.35442370	     17.97780425	     -4.46176844	     28.34055877	     -4.91478072	     -7.74501756	    -32.72605139	     -1.01390370	     10.42216957	    -13.20812616	     -6.08306889	      6.38558357
      2.79000000	      1.42838714	      0.53036481	      1.45341383	      0.18742585	      0.90857850	      0.17671866	      0.33716998	      2.45520414	     -2.76286766	    -26.97723307	     17.63285017	     -4.68463611	     28.03229857	     -4.96445688	     -7.44306825	    -34.65926349	      0.29132007	      9.71215348	    -13.22179312	     -6.22028909	      6.31925603
      2.80000000	      1.53020729	      0.59196824	      1.51014558	      0.18053821	      0.91019906	      0.17752925	      0.51252309	      2.45523357	     -2.79771431	    -26.57138678	     17.26225785	     -4.85142221	     27.67034541	     -4.99420298	     -7.08991728	    -36.61126735	      1.50077380	      8.89798912	    -13.18100471	     -6.35281967	      6.26489402
      2.81000000	      1.60439876	      0.63169231	      1.54579385	      0.17378822	      0.91176285	      0.17828286	      0.68418060	      2.46647771	     -2.82051101	    -26.11801921	     16.86980649	     -4.95213591	     27.25346503	     -5.02770641	     -6.70900689	    -38.56057770	      2.57366206	      8.08910324	    -13.09408764	     -6.45832608	      6.21838301
      2.82000000	      1.64316436	      0.64936638	      1.56363450	      0.16717034	      0.91324049	      0.17895815	      0.86125858	      2.48790544	     -2.84202929	    -25.61803568	     16.45906936	     -5.00441639	     26.78434999	     -5.06673507	     -6.32548522	    -40.47437754	      3.50002532	      7.31029231	    -12.95390767	     -6.53171963	      6.17840390
      2.83000000	      1.65432448	      0.61860482	      1.57432246	      0.16067750	      0.91462083	      0.17956688	      1.02757193	      2.55397003	     -2.86567928	    -25.05540153	     16.04617272	     -5.01454673	     26.25662892	     -5.13945624	     -5.92952228	    -42.32862976	      4.29014322	      6.70441171	    -12.77079567	     -6.54504098	      6.15194016
      2.84000000	      1.61672075	      0.57552014	      1.55527972	      0.15423136	      0.91586301	      0.18012656	      1.25477993	      2.62010662	     -2.88963556	    -24.51637442	     15.59633762	     -5.00596004	     25.68688021	     -5.21981966	     -5.57433403	    -44.09586620	      4.94576531	      6.05800054	    -12.53366999	     -6.54551294	      6.13359746
      2.85000000	      1.52455771	      0.53103165	      1.50273426	      0.14779803	      0.91695771	      0.18063590	      1.56016234	      2.67692046	     -2.88818091	    -24.01994509	     15.12089225	     -4.96926466	     25.07743197	     -5.29025766	     -5.25258484	    -45.74806872	      5.47739587	      5.38503122	    -12.24241989	     -6.54205678	      6.11499523
      2.86000000	      1.42776649	      0.42413977	      1.42854972	      0.14139471	      0.91795141	      0.18110761	      1.87249279	      2.79393522	     -2.88722158	    -23.52655522	     14.64871434	     -4.91897894	     24.38605126	     -5.40865136	     -4.90889917	    -47.28929036	      5.93882360	      5.00978731	    -11.94985510	     -6.46610428	      6.13569802
      2.87000000	      1.27639358	      0.31072986	      1.32014967	      0.13495600	      0.91878108	      0.18149286	      2.29091933	      2.90410546	     -2.85109523	    -23.12156909	     14.14971880	     -4.81268341	     23.66763404	     -5.50480161	     -4.56938893	    -48.70568034	      6.31225229	      4.55039793	    -11.60840316	     -6.37236606	      6.14963644
      2.88000000	      1.14427697	      0.15329915	      1.17647258	      0.12850557	      0.91954020	      0.18183918	      2.72412572	      3.05312272	     -2.79709194	    -22.77886266	     13.64309097	     -4.71589230	     22.84385986	     -5.62057421	     -4.20541469	    -49.99204373	      6.62942027	      4.34056164	    -11.30265372	     -6.22424256	      6.18631650
      2.89000000	      0.98702464	     -0.01940615	      1.00170915	      0.12203202	      0.92016883	      0.18211396	      3.23639580	      3.20595658	     -2.72462104	    -22.53223021	     13.12002982	     -4.55988633	     21.96858564	     -5.71566518	     -3.82556267	    -51.14605315	      6.88167782	      4.13753640	    -10.98135213	     -6.05208865	      6.22001013
      2.90000000	      0.83182207	     -0.20155311	      0.79263702	      0.11553606	      0.92070522	      0.18231793	      3.79991490	      3.35794533	     -2.63417192	    -22.38381706	     12.59003168	     -4.37183401	     21.01237850	     -5.78119265	     -3.43014372	    -52.15876173	      7.06946184	      3.99013961	    -10.67562886	     -5.86149808	      6.25162791
      2.91000000	      0.68369212	     -0.39391218	      0.55450261	      0.10900748	      0.92114259	      0.18245716	      4.40753719	      3.51362249	     -2.52999370	    -22.32803311	     12.05482555	     -4.14401843	     19.98320257	     -5.82110787	     -3.02721667	    -53.04159464	      7.19007490	      3.87483510	    -10.39183488	     -5.65315269	      6.27912630
      2.92000000	      0.54590952	     -0.60557210	      0.28692017	      0.10247054	      0.92148862	      0.18254853	      5.05328637	      3.68712598	     -2.41069915	    -22.36529188	     11.54489150	     -3.84545473	     18.87232091	     -5.85070158	     -2.62840591	    -53.77472186	      7.23152787	      3.77242415	    -10.12627964	     -5.41636942	      6.28459685
      2.93000000	      0.42720377	     -0.80937868	     -0.00391640	      0.09591511	      0.92174984	      0.18259335	      5.71361508	      3.85223639	     -2.28751469	    -22.46633774	     11.03805408	     -3.53627715	     17.68400447	     -5.84805240	     -2.25883302	    -54.37181098	      7.20229649	      3.69843840	     -9.89361265	     -5.18622512	      6.27020489
      2.94000000	      0.32935529	     -1.00789850	     -0.31084234	      0.08935088	      0.92193181	      0.18259360	      6.37490363	      4.01505619	     -2.16010098	    -22.61204025	     10.55871375	     -3.23787134	     16.41806766	     -5.82390440	     -1.92823263	    -54.82129002	      7.10196976	      3.65448565	     -9.69062459	     -4.95993264	      6.22304438
      2.95000000	      0.23910521	     -1.19328911	     -0.62093580	      0.08278218	      0.92203468	      0.18254337	      7.02719533	      4.17219007	     -2.01757597	    -22.75555665	     10.08993958	     -3.01365826	     15.09564133	     -5.76454765	     -1.61845361	    -55.11693389	      6.93112296	      3.64006254	     -9.49852223	     -4.74903662	      6.15589601
      2.96000000	      0.14521821	     -1.36476020	     -0.92743371	      0.07619492	      0.92200835	      0.18243600	      7.70794562	      4.31143860	     -1.94674566	    -22.94837111	      9.66088065	     -2.89082557	     13.74746710	     -5.70210119	     -1.39583830	    -55.27701737	      6.71966535	      3.64134294	     -9.30512202	     -4.55053361	      6.02554516
      2.97000000	      0.15831889	     -1.54198911	     -1.24860143	      0.06962096	      0.92208655	      0.18232569	      8.21753626	      4.47885562	     -1.75864760	    -23.04003900	      9.26052848	     -2.55649513	     12.22892773	     -5.64919354	     -1.24069444	    -55.25210916	      6.45797094	      3.75991842	     -9.24107538	     -4.35273114	      5.88609311
